HIERARCHY
ROOT Hips
{
    OFFSET 0.000000 0.000000 0.000000
    CHANNELS 6 Xposition Yposition Zposition Zrotation Xrotation Yrotation
    JOINT Spine
    {
        OFFSET -0.000000 7.236184 0.000000
        CHANNELS 3 Zrotation Xrotation Yrotation
        JOINT Spine1
        {
            OFFSET -0.000000 20.420147 0.000000
            CHANNELS 3 Zrotation Xrotation Yrotation
            JOINT Neck
            {
                OFFSET -0.000000 20.336288 1.848754
                CHANNELS 3 Zrotation Xrotation Yrotation
                JOINT Head
                {
                    OFFSET -0.000000 12.354461 -1.764923
                    CHANNELS 3 Zrotation Xrotation Yrotation
                    End Site
                    {
                        OFFSET -0.000000 22.061537 0.000000
                    }
                }
            }
            JOINT LeftShoulder
            {
                OFFSET 3.573296 18.396038 -0.314103
                CHANNELS 3 Zrotation Xrotation Yrotation
                JOINT LeftArm
                {
                    OFFSET 10.880760 0.000000 0.000000
                    CHANNELS 3 Zrotation Xrotation Yrotation
                    JOINT LeftForeArm
                    {
                        OFFSET 27.185530 0.000000 0.000000
                        CHANNELS 3 Zrotation Xrotation Yrotation
                        JOINT LeftHand
                        {
                            OFFSET 27.825975 0.000000 0.000000
                            CHANNELS 3 Zrotation Xrotation Yrotation
                            End Site
                            {
                                OFFSET 13.236923 0.000000 0.000000
                            }
                        }
                    }
                }
            }
            JOINT RightShoulder
            {
                OFFSET -3.474926 18.396038 -0.314103
                CHANNELS 3 Zrotation Xrotation Yrotation
                JOINT RightArm
                {
                    OFFSET -10.880760 0.000000 0.000000
                    CHANNELS 3 Zrotation Xrotation Yrotation
                    JOINT RightForeArm
                    {
                        OFFSET -27.185530 0.000000 0.000000
                        CHANNELS 3 Zrotation Xrotation Yrotation
                        JOINT RightHand
                        {
                            OFFSET -27.825975 0.000000 0.000000
                            CHANNELS 3 Zrotation Xrotation Yrotation
                            End Site
                            {
                                OFFSET -13.236923 0.000000 0.000000
                            }
                        }
                    }
                }
            }
        }
    }
    JOINT LeftUpLeg
    {
        OFFSET 8.824615 0.000000 0.000000
        CHANNELS 3 Zrotation Xrotation Yrotation
        JOINT LeftLeg
        {
            OFFSET -0.000000 -35.111282 0.000000
            CHANNELS 3 Zrotation Xrotation Yrotation
            JOINT LeftFoot
            {
                OFFSET -0.000000 -42.324711 0.000000
                CHANNELS 3 Zrotation Xrotation Yrotation
                JOINT LeftToeBase
                {
                    OFFSET -0.000000 -5.735999 13.236923
                    CHANNELS 3 Zrotation Xrotation Yrotation
                    End Site
                    {
                        OFFSET -0.000000 0.000000 3.529846
                    }
                }
            }
        }
    }
    JOINT RightUpLeg
    {
        OFFSET -8.824615 0.000000 0.000000
        CHANNELS 3 Zrotation Xrotation Yrotation
        JOINT RightLeg
        {
            OFFSET -0.000000 -35.111282 0.000000
            CHANNELS 3 Zrotation Xrotation Yrotation
            JOINT RightFoot
            {
                OFFSET -0.000000 -42.324711 0.000000
                CHANNELS 3 Zrotation Xrotation Yrotation
                JOINT RightToeBase
                {
                    OFFSET -0.000000 -5.735999 13.236923
                    CHANNELS 3 Zrotation Xrotation Yrotation
                    End Site
                    {
                        OFFSET -0.000000 0.000000 3.529846
                    }
                }
            }
        }
    }
}
MOTION
Frames:    9
Frame Time:    0.008333
-1.643989    81.178261    98.127914    -0.183094    -3.910274    -174.848740    -1.254287    -13.852966    0.767699    -0.132797    6.525516    0.927698    1.969521    4.452298    -2.387410    4.146464    1.383381    -2.156561    0.755699    18.213196    -2.899446    -43.687149    47.287174    -40.250721    -2.669834    -5.152711    -17.561480    18.671103    -5.079831    2.953526    6.584930    19.704876    -3.362666    37.681114    46.852283    42.361797    0.648658    -4.505700    16.861858    -14.960276    -4.103282    -3.804443    3.425707    -4.463648    -0.801255    -2.920929    7.582444    -0.415825    -0.193225    -6.528259    -7.525027    -0.113055    0.954623    0.125104    -3.790652    -1.438749    2.812469    3.339133    4.794085    3.670830    -1.729614    -6.439860    -13.203856    -0.307691    -0.316510    0.332937    
-1.640909    81.178162    98.121315    -0.183748    -3.910417    -174.840164    -1.251081    -13.854199    0.767810    -0.134174    6.527353    0.927504    1.971759    4.449263    -2.392293    4.151526    1.386775    -2.161372    0.755271    18.210861    -2.900447    -43.681377    47.286991    -40.253178    -2.676341    -5.145325    -17.560240    18.626093    -5.075287    2.949336    6.585773    19.703838    -3.360940    37.680119    46.853546    42.362202    0.652521    -4.500265    16.860312    -14.977905    -4.097870    -3.804004    3.428253    -4.459407    -0.806932    -2.922633    7.580063    -0.418727    -0.189209    -6.530801    -7.522760    -0.112617    0.945764    0.124622    -3.786962    -1.432957    2.804320    3.335186    4.795569    3.673486    -1.732033    -6.446477    -13.206353    -0.307851    -0.313311    0.333109    
-1.637836    81.178047    98.114738    -0.184416    -3.910472    -174.831696    -1.247904    -13.855373    0.767917    -0.135603    6.529239    0.927282    1.974116    4.446522    -2.396991    4.156313    1.389696    -2.166071    0.754811    18.208414    -2.901558    -43.675938    47.286842    -40.255207    -2.682563    -5.138018    -17.558964    18.581459    -5.070755    2.945272    6.586794    19.702677    -3.359301    37.679066    46.854950    42.362488    0.656193    -4.495043    16.858860    -14.995379    -4.092670    -3.803524    3.430742    -4.457021    -0.799664    -2.922555    7.582235    -0.437756    -0.185104    -6.535243    -7.517294    -0.112098    0.936955    0.124050    -3.783298    -1.427103    2.796204    3.331352    4.796897    3.675832    -1.735905    -6.452689    -13.208675    -0.308164    -0.309675    0.333446    
-1.634767    81.177940    98.108253    -0.185127    -3.910636    -174.823471    -1.244939    -13.856563    0.767946    -0.136780    6.530958    0.927106    1.976181    4.443974    -2.401485    4.160934    1.392547    -2.170491    0.754409    18.206263    -2.902413    -43.670280    47.286900    -40.257771    -2.688611    -5.130848    -17.557772    18.537769    -5.066222    2.941744    6.587504    19.701563    -3.357721    37.677982    46.856621    42.362980    0.659670    -4.490261    16.857464    -15.012867    -4.087856    -3.802995    3.433182    -4.453190    -0.802780    -2.923860    7.580731    -0.443476    -0.181413    -6.538043    -7.514609    -0.111559    0.928131    0.123455    -3.779751    -1.421503    2.788293    3.327717    4.798233    3.678013    -1.735791    -6.459200    -13.210357    -0.308271    -0.307176    0.333560    
-1.631670    81.177811    98.101784    -0.185805    -3.910716    -174.815475    -1.242043    -13.857841    0.767965    -0.137869    6.532886    0.926772    1.978099    4.441699    -2.405580    4.165335    1.395223    -2.174552    0.754065    18.204014    -2.903213    -43.665176    47.287086    -40.259945    -2.694313    -5.123795    -17.556479    18.494902    -5.061660    2.938640    6.588247    19.700554    -3.356085    37.676811    46.858032    42.363468    0.663089    -4.485748    16.856224    -15.030509    -4.083331    -3.802223    3.435727    -4.448936    -0.807928    -2.925551    7.578493    -0.446487    -0.178131    -6.540442    -7.512526    -0.110953    0.919765    0.122786    -3.776159    -1.415900    2.780557    3.324180    4.799615    3.679968    -1.738540    -6.465246    -13.212159    -0.308626    -0.304022    0.333942    
-1.628538    81.177696    98.095360    -0.186493    -3.910800    -174.807800    -1.239370    -13.859269    0.767847    -0.138669    6.534907    0.926444    1.979793    4.440006    -2.409250    4.169285    1.397486    -2.178146    0.753670    18.202023    -2.903992    -43.660133    47.287205    -40.262142    -2.699724    -5.116844    -17.555223    18.452904    -5.057027    2.936136    6.588915    19.699930    -3.354525    37.675064    46.859467    42.364487    0.666189    -4.481901    16.855154    -15.048530    -4.079426    -3.801511    3.438277    -4.445084    -0.810290    -2.926821    7.577295    -0.452730    -0.175157    -6.543238    -7.509850    -0.110232    0.911498    0.121991    -3.772563    -1.410421    2.772956    3.320731    4.801021    3.681630    -1.742796    -6.470903    -13.213743    -0.309053    -0.301033    0.334403    
-1.625353    81.177559    98.088982    -0.187142    -3.910932    -174.800415    -1.236860    -13.860619    0.767657    -0.139244    6.536767    0.926010    1.981269    4.438683    -2.412403    4.172788    1.399356    -2.181217    0.753188    18.200321    -2.904422    -43.655003    47.287678    -40.264618    -2.704531    -5.110158    -17.554008    18.411919    -5.052412    2.934350    6.589419    19.699240    -3.353158    37.673283    46.861294    42.365604    0.668840    -4.478683    16.854149    -15.066794    -4.076123    -3.800498    3.440968    -4.441194    -0.813093    -2.928301    7.575953    -0.458218    -0.172536    -6.545886    -7.507343    -0.109436    0.903324    0.121111    -3.768991    -1.405107    2.765763    3.317630    4.802312    3.682966    -1.743127    -6.476693    -13.214664    -0.309321    -0.298832    0.334693    
-1.622124    81.177429    98.082687    -0.187742    -3.910996    -174.793442    -1.234505    -13.862056    0.767341    -0.139633    6.538749    0.925424    1.982651    4.438040    -2.414886    4.175613    1.400718    -2.183659    0.752863    18.198559    -2.904859    -43.650883    47.288216    -40.266464    -2.708885    -5.103536    -17.552629    18.372263    -5.047659    2.933105    6.589770    19.698660    -3.351653    37.671741    46.862965    42.366562    0.671326    -4.476076    16.853271    -15.085515    -4.073373    -3.799435    3.443714    -4.437420    -0.814861    -2.929649    7.574981    -0.464471    -0.170238    -6.548550    -7.504907    -0.108553    0.895498    0.120135    -3.765263    -1.399925    2.758612    3.314515    4.803619    3.683691    -1.744883    -6.482033    -13.214872    -0.309677    -0.297031    0.335077    
-1.618852    81.177292    98.076508    -0.188337    -3.911275    -174.786865    -1.232413    -13.863689    0.766886    -0.139808    6.540708    0.924766    1.983790    4.437745    -2.416756    4.177946    1.401812    -2.185459    0.752561    18.197098    -2.904941    -43.646870    47.288948    -40.268494    -2.712587    -5.097096    -17.551348    18.333706    -5.042846    2.932515    6.590153    19.698526    -3.350613    37.669456    46.864437    42.368336    0.673662    -4.474026    16.852522    -15.104628    -4.071185    -3.798229    3.446573    -4.433920    -0.816536    -2.931201    7.574114    -0.470655    -0.168296    -6.551133    -7.502375    -0.107632    0.888144    0.119118    -3.761667    -1.395184    2.751938    3.311749    4.804999    3.684432    -1.748300    -6.486932    -13.215450    -0.310127    -0.294845    0.335563    
